<svg xmlns="http://www.w3.org/2000/svg" xmlns:xlink="http://www.w3.org/1999/xlink" width="24" height="24" viewBox="0 0 24 24"><defs><style>.a{fill:#e18700;}.b{clip-path:url(#a);}</style><clipPath id="a"><path class="a" d="M9.9,20H9.859A10,10,0,0,1,9.9,0h.029a10.592,10.592,0,0,1,7.606,3.085,8.444,8.444,0,0,1,2.453,6.244A6.151,6.151,0,0,1,13.879,15H12.228a.5.5,0,0,0-.5.5.493.493,0,0,0,.128.325,2.52,2.52,0,0,1,.567,2.289A2.583,2.583,0,0,1,9.9,20ZM9.921,2A8.107,8.107,0,0,0,2.072,8.895,8,8,0,0,0,9.886,18c.319-.02.547-.158.594-.358a.519.519,0,0,0-.121-.488A2.494,2.494,0,0,1,12.228,13h1.651A4.162,4.162,0,0,0,17.993,9.25,6.462,6.462,0,0,0,16.1,4.478,8.5,8.5,0,0,0,10,2ZM5,12a1.5,1.5,0,1,1,.838-.256A1.5,1.5,0,0,1,5,12Zm9-4a1.5,1.5,0,1,1,.75-.2A1.5,1.5,0,0,1,14,8ZM6,8A1.5,1.5,0,1,1,7.3,7.25,1.5,1.5,0,0,1,6,8Zm4-2a1.5,1.5,0,1,1,1.5-1.5A1.5,1.5,0,0,1,10,6Z" transform="translate(2.002 2)"/></clipPath></defs><path class="a" d="M9.9,20H9.859A10,10,0,0,1,9.9,0h.029a10.592,10.592,0,0,1,7.606,3.085,8.444,8.444,0,0,1,2.453,6.244A6.151,6.151,0,0,1,13.879,15H12.228a.5.5,0,0,0-.5.5.493.493,0,0,0,.128.325,2.52,2.52,0,0,1,.567,2.289A2.583,2.583,0,0,1,9.9,20ZM9.921,2A8.107,8.107,0,0,0,2.072,8.895,8,8,0,0,0,9.886,18c.319-.02.547-.158.594-.358a.519.519,0,0,0-.121-.488A2.494,2.494,0,0,1,12.228,13h1.651A4.162,4.162,0,0,0,17.993,9.25,6.462,6.462,0,0,0,16.1,4.478,8.5,8.5,0,0,0,10,2ZM5,12a1.5,1.5,0,1,1,.838-.256A1.5,1.5,0,0,1,5,12Zm9-4a1.5,1.5,0,1,1,.75-.2A1.5,1.5,0,0,1,14,8ZM6,8A1.5,1.5,0,1,1,7.3,7.25,1.5,1.5,0,0,1,6,8Zm4-2a1.5,1.5,0,1,1,1.5-1.5A1.5,1.5,0,0,1,10,6Z" transform="translate(2.002 2)"/></svg>