<svg xmlns="http://www.w3.org/2000/svg" xmlns:xlink="http://www.w3.org/1999/xlink" width="24" height="24" viewBox="0 0 24 24"><defs><style>.a{fill:#565d74;}.b{opacity:0.5;}.c{clip-path:url(#a);}</style><clipPath id="a"><path class="a" d="M19.709,9.308l-3-3.013a1,1,0,0,0-1.418,1.411L16.58,9H11V3.409l1.291,1.3A1,1,0,0,0,13.709,3.3l-2.987-3A.976.976,0,0,0,10.013,0a1,1,0,0,0-.706.292l-3.013,3A1,1,0,1,0,7.706,4.709L9,3.42V9H3.408l1.3-1.291A1,1,0,1,0,3.3,6.292L.3,9.279a1,1,0,0,0,0,1.414l3,3.013A1,1,0,0,0,4.709,12.3L3.42,11H9v5.592L7.709,15.3a1,1,0,0,0-1.418,1.411l2.987,3A1,1,0,0,0,9.985,20h0a1,1,0,0,0,.706-.291l3.013-3a1,1,0,1,0-1.412-1.417L11,16.58V11h5.592l-1.3,1.292a1,1,0,1,0,1.41,1.417l3-2.987a1,1,0,0,0,0-1.414" transform="translate(2 2)"/></clipPath></defs><g class="b"><path class="a" d="M19.709,9.308l-3-3.013a1,1,0,0,0-1.418,1.411L16.58,9H11V3.409l1.291,1.3A1,1,0,0,0,13.709,3.3l-2.987-3A.976.976,0,0,0,10.013,0a1,1,0,0,0-.706.292l-3.013,3A1,1,0,1,0,7.706,4.709L9,3.42V9H3.408l1.3-1.291A1,1,0,1,0,3.3,6.292L.3,9.279a1,1,0,0,0,0,1.414l3,3.013A1,1,0,0,0,4.709,12.3L3.42,11H9v5.592L7.709,15.3a1,1,0,0,0-1.418,1.411l2.987,3A1,1,0,0,0,9.985,20h0a1,1,0,0,0,.706-.291l3.013-3a1,1,0,1,0-1.412-1.417L11,16.58V11h5.592l-1.3,1.292a1,1,0,1,0,1.41,1.417l3-2.987a1,1,0,0,0,0-1.414" transform="translate(2 2)"/></g></svg>