<svg xmlns="http://www.w3.org/2000/svg" xmlns:xlink="http://www.w3.org/1999/xlink" width="24" height="24" viewBox="0 0 24 24"><defs><style>.a{fill:#fbb30b;}.b{clip-path:url(#a);}</style><clipPath id="a"><path class="a" d="M17,4a3,3,0,0,1,3,3v8a3,3,0,0,1-3,3ZM15,18H5V4H6V2.5A2.5,2.5,0,0,1,8.5,0h3A2.5,2.5,0,0,1,14,2.5V4h1V18h0ZM8,2.5V4h4V2.5a.5.5,0,0,0-.5-.5h-3A.5.5,0,0,0,8,2.5ZM0,15V7A3,3,0,0,1,3,4V18A3,3,0,0,1,0,15Z" transform="translate(2 3)"/></clipPath></defs><path class="a" d="M17,4a3,3,0,0,1,3,3v8a3,3,0,0,1-3,3ZM15,18H5V4H6V2.5A2.5,2.5,0,0,1,8.5,0h3A2.5,2.5,0,0,1,14,2.5V4h1V18h0ZM8,2.5V4h4V2.5a.5.5,0,0,0-.5-.5h-3A.5.5,0,0,0,8,2.5ZM0,15V7A3,3,0,0,1,3,4V18A3,3,0,0,1,0,15Z" transform="translate(2 3)"/></svg>