<svg width="16" height="16" viewBox="0 0 16 16" fill="none" xmlns="http://www.w3.org/2000/svg">
<path d="M2.60156 4.3999H3.80156H13.4016" stroke="#25282B" stroke-width="2" stroke-linecap="round" stroke-linejoin="round"/>
<path d="M5.60078 4.4V3.2C5.60078 2.88174 5.72721 2.57652 5.95225 2.35147C6.1773 2.12643 6.48252 2 6.80078 2H9.20078C9.51904 2 9.82427 2.12643 10.0493 2.35147C10.2744 2.57652 10.4008 2.88174 10.4008 3.2V4.4M12.2008 4.4V12.8C12.2008 13.1183 12.0744 13.4235 11.8493 13.6485C11.6243 13.8736 11.319 14 11.0008 14H5.00078C4.68252 14 4.3773 13.8736 4.15225 13.6485C3.92721 13.4235 3.80078 13.1183 3.80078 12.8V4.4H12.2008Z" stroke="#25282B" stroke-width="2" stroke-linecap="round" stroke-linejoin="round"/>
<path d="M6.80078 7.3999V10.9999" stroke="#25282B" stroke-width="2" stroke-linecap="round" stroke-linejoin="round"/>
<path d="M9.20117 7.3999V10.9999" stroke="#25282B" stroke-width="2" stroke-linecap="round" stroke-linejoin="round"/>
</svg>
