<svg xmlns="http://www.w3.org/2000/svg" xmlns:xlink="http://www.w3.org/1999/xlink" width="24" height="24" viewBox="0 0 24 24"><defs><style>.a{fill:#565d74;}.b{opacity:0.5;}.c{clip-path:url(#a);}</style><clipPath id="a"><path class="a" d="M10.02,20H10A10,10,0,1,1,10,0h.028a10,10,0,0,1,0,20ZM7.08,11a11.023,11.023,0,0,0,2.931,6.608A11.436,11.436,0,0,0,12.962,11ZM2.069,11a8.052,8.052,0,0,0,5.338,6.561A12.815,12.815,0,0,1,5.061,11Zm12.906,0a13.213,13.213,0,0,1-2.358,6.552A8.049,8.049,0,0,0,17.93,11ZM12.65,2.461A12.99,12.99,0,0,1,14.978,9H17.93A8.053,8.053,0,0,0,12.65,2.461ZM10.026,2.4h0A11.432,11.432,0,0,0,7.079,9h5.88a11.148,11.148,0,0,0-2.933-6.6Zm-2.588.032A8.043,8.043,0,0,0,2.069,9h3A13.236,13.236,0,0,1,7.438,2.429Z" transform="translate(2 2)"/></clipPath></defs><g class="b"><path class="a" d="M10.02,20H10A10,10,0,1,1,10,0h.028a10,10,0,0,1,0,20ZM7.08,11a11.023,11.023,0,0,0,2.931,6.608A11.436,11.436,0,0,0,12.962,11ZM2.069,11a8.052,8.052,0,0,0,5.338,6.561A12.815,12.815,0,0,1,5.061,11Zm12.906,0a13.213,13.213,0,0,1-2.358,6.552A8.049,8.049,0,0,0,17.93,11ZM12.65,2.461A12.99,12.99,0,0,1,14.978,9H17.93A8.053,8.053,0,0,0,12.65,2.461ZM10.026,2.4h0A11.432,11.432,0,0,0,7.079,9h5.88a11.148,11.148,0,0,0-2.933-6.6Zm-2.588.032A8.043,8.043,0,0,0,2.069,9h3A13.236,13.236,0,0,1,7.438,2.429Z" transform="translate(2 2)"/></g></svg>