<svg xmlns="http://www.w3.org/2000/svg" width="24.794" height="12.947" viewBox="0 0 24.794 12.947"><defs><style>.a{fill:#e18700;}</style></defs><g transform="translate(-1100.59 -509.951)"><path class="a" d="M8.113.355a1.208,1.208,0,0,0-1.71,0L2.435,4.322,2.419,1.2A1.21,1.21,0,0,0,1.21,0H1.2A1.21,1.21,0,0,0,0,1.216L.03,7.26a1.209,1.209,0,0,0,1.208,1.2l6.018,0h0a1.21,1.21,0,1,0,0-2.419H4.131L8.113,2.065a1.208,1.208,0,0,0,0-1.71" transform="translate(1113.409 516.91) rotate(-45)"/><path class="a" d="M8.463,1.239A1.209,1.209,0,0,0,7.26.03L1.216,0H1.21a1.21,1.21,0,0,0,0,2.419l3.117.016L.354,6.4a1.209,1.209,0,1,0,1.71,1.71L6.045,4.132l0,3.127a1.211,1.211,0,0,0,1.21,1.208h0A1.209,1.209,0,0,0,8.467,7.256Z" transform="translate(1100.59 515.938) rotate(-45)"/></g></svg>