<svg xmlns="http://www.w3.org/2000/svg" xmlns:xlink="http://www.w3.org/1999/xlink" width="24" height="24" viewBox="0 0 24 24"><defs><style>.a{fill:#a9b0c5;}.b{clip-path:url(#a);}</style><clipPath id="a"><path class="a" d="M13,19.988v-9a1,1,0,0,0-1-1H6a1,1,0,0,0-1,1v9H1.889a1.95,1.95,0,0,1-1.889-2V9.612A2.074,2.074,0,0,1,.575,8.174L8.285.289a1.028,1.028,0,0,1,1.429,0l7.709,7.884A2.074,2.074,0,0,1,18,9.612v8.375a1.949,1.949,0,0,1-1.888,2Zm-6-1v-7h4v7Z" transform="translate(3 2.012)"/></clipPath></defs><path class="a" d="M13,19.988v-9a1,1,0,0,0-1-1H6a1,1,0,0,0-1,1v9H1.889a1.95,1.95,0,0,1-1.889-2V9.612A2.074,2.074,0,0,1,.575,8.174L8.285.289a1.028,1.028,0,0,1,1.429,0l7.709,7.884A2.074,2.074,0,0,1,18,9.612v8.375a1.949,1.949,0,0,1-1.888,2Zm-6-1v-7h4v7Z" transform="translate(3 2.012)"/></svg>