<svg viewBox="0 0 48 48" xmlns="http://www.w3.org/2000/svg"><g fill="none" fill-rule="evenodd"><path d="M41.621 28.165c-.252-.776-.689-1.487-1.297-2.13-.637-.672-1.474-1.192-2.512-1.568-1.039-.373-2.373-.562-4.017-.562h-2.23c.265-2.746 1.243-5.083 2.935-7.015 1.69-1.926 4.031-3.621 7.025-5.075L39.71 9a27.358 27.358 0 0 0-10.117 7.379c-2.8 3.247-4.196 6.464-4.196 9.655 0 3.428.81 6.117 2.44 8.058C29.467 36.033 31.803 37 34.84 37c1.927 0 3.601-.643 5.025-1.928C41.287 33.79 42 32.287 42 30.573a7.7 7.7 0 0 0-.379-2.408m-20.396 0c-.254-.776-.69-1.487-1.299-2.13-.635-.672-1.473-1.192-2.512-1.568-1.037-.373-2.37-.562-4.016-.562h-2.232c.267-2.746 1.244-5.083 2.935-7.015 1.69-1.926 4.034-3.621 7.026-5.075L19.312 9A27.358 27.358 0 0 0 9.195 16.38C6.395 19.627 5 22.844 5 26.035c0 3.428.807 6.117 2.44 8.058C9.067 36.033 11.403 37 14.442 37c1.926 0 3.602-.643 5.026-1.928 1.422-1.283 2.134-2.786 2.134-4.5 0-.827-.127-1.632-.378-2.408" fill="#1fed29" class="fill-000000"></path></g></svg>