<svg width="24" height="25" viewBox="0 0 24 25" fill="none" xmlns="http://www.w3.org/2000/svg">
<path d="M20.6048 15.435V20.875C20.6048 21.435 20.1648 21.875 19.6048 21.875H4.40479C3.84479 21.875 3.40479 21.435 3.40479 20.875V15.435C3.40479 14.875 3.84479 14.435 4.40479 14.435C4.96479 14.435 5.40479 14.875 5.40479 15.435V19.875H18.6048V15.435C18.6048 14.875 19.0448 14.435 19.6048 14.435C20.1648 14.435 20.6048 14.875 20.6048 15.435ZM8.72478 9.65498L11.0048 7.33501V15.995C11.0048 16.555 11.4448 16.995 12.0048 16.995C12.5648 16.995 13.0048 16.555 13.0048 15.995V7.33501L15.2848 9.65498C15.4848 9.85498 15.7448 9.95498 16.0048 9.95498C16.2648 9.95498 16.5048 9.855 16.7048 9.675C17.1048 9.295 17.1048 8.65498 16.7248 8.25498L12.7448 4.175C12.5648 3.975 12.3048 3.875 12.0248 3.875C11.7648 3.875 11.5048 3.975 11.3048 4.175L7.32478 8.25498C6.94478 8.65498 6.94478 9.275 7.34478 9.675C7.70478 10.055 8.34478 10.035 8.72478 9.65498Z" fill="black"/>
</svg>
