<svg xmlns="http://www.w3.org/2000/svg" version="1.1" xmlns:xlink="http://www.w3.org/1999/xlink" xmlns:svgjs="http://svgjs.com/svgjs" width="1440" height="560" preserveAspectRatio="none" viewBox="0 0 1440 560"><g mask="url(&quot;#SvgjsMask1007&quot;)" fill="none"><rect width="1440" height="560" x="0" y="0" fill="rgba(3, 35, 68, 1)"></rect><path d="M1422.5 254.6L1424.8 254.6L1424.8 256.9L1422.5 256.9z" fill="#e73635"></path><path d="M605.47 92.96a29.1 29.1 0 1 0 57.9-5.88z" fill="#e73635"></path><path d="M1205.13 66.83L1224.07 66.83L1224.07 85.77L1205.13 85.77z" stroke="#037b0b"></path><path d="M1075.27 22.83L1114.22 22.83L1114.22 61.78L1075.27 61.78z" fill="rgba(90, 66, 77, 1)"></path><path d="M812.89 115.61 a25.56 25.56 0 1 0 51.12 0 a25.56 25.56 0 1 0 -51.12 0z" stroke="rgba(90, 66, 77, 1)"></path><path d="M492.11 149.27L536.54 149.27L536.54 193.7L492.11 193.7z" fill="rgba(66, 68, 90, 1)"></path><path d="M90.61 384.59a34.78 34.78 0 1 0 53.7 44.22z" stroke="#037b0b"></path><path d="M1323.96 132.05 a22.33 22.33 0 1 0 44.66 0 a22.33 22.33 0 1 0 -44.66 0z" stroke="#037b0b"></path><path d="M1276.47 515.09L1291.35 515.09L1291.35 529.97L1276.47 529.97z" fill="rgba(90, 66, 77, 1)"></path><path d="M301.61 396.81L339.59 396.81L339.59 437.55L301.61 437.55z" stroke="#e73635"></path><path d="M40.9 185.65 a35.04 35.04 0 1 0 70.08 0 a35.04 35.04 0 1 0 -70.08 0z" stroke="rgba(66, 68, 90, 1)"></path><path d="M907.42 63.31a16.15 16.15 0 1 0-24.41 21.15z" stroke="rgba(90, 66, 77, 1)"></path><path d="M158.05 54.14 a1.71 1.71 0 1 0 3.42 0 a1.71 1.71 0 1 0 -3.42 0z" stroke="rgba(90, 66, 77, 1)"></path><path d="M620.65 280.01L635.48 280.01L635.48 331.45L620.65 331.45z" stroke="rgba(66, 68, 90, 1)"></path><path d="M1242.87 308.63a40.87 40.87 0 1 0-74.54 33.55z" stroke="#e73635"></path><path d="M634.1 224.76 a6.37 6.37 0 1 0 12.74 0 a6.37 6.37 0 1 0 -12.74 0z" stroke="rgba(66, 68, 90, 1)"></path><path d="M542.79 414.82L581.33 414.82L581.33 445.77L542.79 445.77z" stroke="rgba(90, 66, 77, 1)"></path><path d="M960.13 11.9L970.83 11.9L970.83 22.6L960.13 22.6z" fill="#037b0b"></path><path d="M500.22 217.67L507.92 217.67L507.92 241.24L500.22 241.24z" fill="rgba(90, 66, 77, 1)"></path><path d="M1360.66 353.64 a52.79 52.79 0 1 0 105.58 0 a52.79 52.79 0 1 0 -105.58 0z" fill="#e73635"></path><path d="M1131.62 515.71a22.24 22.24 0 1 0-35.68-26.56z" fill="rgba(66, 68, 90, 1)"></path><path d="M897.76 467.92a22.84 22.84 0 1 0-6.16 45.26z" stroke="rgba(90, 66, 77, 1)"></path><path d="M684.97 409.63L724.36 409.63L724.36 449.02L684.97 449.02z" stroke="rgba(90, 66, 77, 1)"></path><path d="M385.34 444.37L410.04 444.37L410.04 469.07L385.34 469.07z" fill="rgba(90, 66, 77, 1)"></path><path d="M695.86 92.18 a5.54 5.54 0 1 0 11.08 0 a5.54 5.54 0 1 0 -11.08 0z" stroke="rgba(66, 68, 90, 1)"></path><path d="M1010.24 404.77L1043.55 404.77L1043.55 439.37L1010.24 439.37z" fill="#e73635"></path><path d="M313.74 405.39L338.58 405.39L338.58 414.82L313.74 414.82z" stroke="rgba(90, 66, 77, 1)"></path><path d="M985.01 333.22 a50.22 50.22 0 1 0 100.44 0 a50.22 50.22 0 1 0 -100.44 0z" fill="#e73635"></path><path d="M301.69 83.19L332.15 83.19L332.15 113.65L301.69 113.65z" fill="#037b0b"></path><path d="M344.59 198.8 a5.57 5.57 0 1 0 11.14 0 a5.57 5.57 0 1 0 -11.14 0z" fill="rgba(90, 66, 77, 1)"></path><path d="M517.41 444.53L530.28 444.53L530.28 457.4L517.41 457.4z" fill="rgba(66, 68, 90, 1)"></path><path d="M1439.73 19.31L1442.16 19.31L1442.16 21.74L1439.73 21.74z" fill="rgba(66, 68, 90, 1)"></path><path d="M944.35 424.04a3.76 3.76 0 1 0-5.16 5.47z" fill="#037b0b"></path></g><defs><mask id="SvgjsMask1007"><rect width="1440" height="560" fill="#ffffff"></rect></mask></defs></svg>